<svg width="1255" height="210" viewBox="0 0 1255 210" fill="none" xmlns="http://www.w3.org/2000/svg">
<path fill-rule="evenodd" clip-rule="evenodd" d="M90.0651 55.7538H94.95C98.8037 55.7538 101.508 55.0831 103.064 53.7513C104.616 52.4224 105.393 50.7211 105.393 48.6433C105.393 46.6282 104.722 44.9227 103.362 43.5199C102.017 42.1156 99.4773 41.4142 95.7414 41.4142H90.0651V55.7538ZM326.517 188.631L325.694 181.722C327.312 182.157 328.706 182.378 329.908 182.378C331.537 182.378 332.852 182.098 333.826 181.555C334.817 181.011 335.613 180.256 336.239 179.267C336.714 178.542 337.454 176.71 338.485 173.795C338.624 173.375 338.848 172.789 339.139 171.994L322.679 128.489H330.603L339.646 153.627C340.801 156.822 341.862 160.172 342.782 163.69C343.632 160.311 344.639 157.017 345.813 153.794L355.088 128.489H362.441L345.933 172.648C344.164 177.425 342.782 180.704 341.807 182.505C340.493 184.933 339.003 186.706 337.314 187.837C335.613 188.967 333.602 189.538 331.258 189.538C329.836 189.538 328.263 189.23 326.517 188.631ZM319.393 165.32L320.452 171.826C318.391 172.261 316.534 172.485 314.9 172.485C312.224 172.485 310.158 172.065 308.68 171.214C307.215 170.376 306.184 169.258 305.582 167.876C304.982 166.511 304.675 163.607 304.675 159.194V134.213H299.278V128.489H304.675V117.727L312 113.318V128.489H319.393V134.213H312V159.601C312 161.709 312.124 163.047 312.375 163.648C312.643 164.249 313.059 164.725 313.646 165.084C314.232 165.436 315.067 165.617 316.157 165.617C316.981 165.617 318.052 165.517 319.393 165.32ZM284.509 128.489H291.876V171.914H284.509V128.489ZM284.509 111.963H291.876V120.438H284.509V111.963ZM239.425 158.945L246.694 157.8C247.098 160.716 248.243 162.952 250.112 164.514C251.97 166.064 254.578 166.845 257.938 166.845C261.317 166.845 263.829 166.147 265.458 164.777C267.092 163.399 267.915 161.778 267.915 159.936C267.915 158.263 267.189 156.962 265.739 155.999C264.732 155.344 262.223 154.521 258.217 153.514C252.832 152.145 249.082 150.974 247.001 149.969C244.924 148.978 243.334 147.596 242.26 145.838C241.186 144.081 240.64 142.14 240.64 140.019C240.64 138.078 241.087 136.289 241.98 134.643C242.858 132.983 244.073 131.617 245.591 130.527C246.737 129.688 248.3 128.965 250.268 128.377C252.247 127.791 254.367 127.499 256.628 127.499C260.031 127.499 263.018 128.002 265.599 128.977C268.179 129.956 270.076 131.281 271.303 132.955C272.532 134.643 273.371 136.877 273.827 139.683L266.645 140.674C266.31 138.438 265.363 136.697 263.801 135.442C262.235 134.184 260.019 133.558 257.157 133.558C253.78 133.558 251.367 134.114 249.933 135.231C248.483 136.347 247.756 137.659 247.756 139.153C247.756 140.115 248.064 140.966 248.662 141.733C249.262 142.531 250.197 143.171 251.479 143.702C252.221 143.968 254.382 144.597 257.981 145.571C263.186 146.969 266.813 148.099 268.862 148.994C270.927 149.872 272.545 151.17 273.719 152.859C274.89 154.545 275.476 156.642 275.476 159.153C275.476 161.61 274.75 163.913 273.328 166.091C271.89 168.255 269.825 169.929 267.133 171.115C264.441 172.301 261.385 172.889 257.981 172.889C252.333 172.889 248.036 171.715 245.076 169.37C242.119 167.026 240.235 163.551 239.425 158.945ZM214.154 171.909V128.489H220.765V135.064C222.455 131.992 224.016 129.956 225.454 128.977C226.877 128.002 228.454 127.499 230.168 127.499C232.653 127.499 235.164 128.294 237.729 129.871L235.192 136.709C233.406 135.635 231.606 135.107 229.805 135.107C228.187 135.107 226.752 135.591 225.467 136.557C224.184 137.535 223.278 138.874 222.735 140.59C221.912 143.202 221.505 146.062 221.505 149.173V171.909H214.154ZM172.979 146.019H197.213C196.89 142.376 195.955 139.628 194.434 137.812C192.089 134.98 189.049 133.558 185.325 133.558C181.947 133.558 179.103 134.688 176.802 136.949C174.498 139.208 173.227 142.237 172.979 146.019ZM197.126 157.927L204.729 158.862C203.528 163.312 201.311 166.761 198.075 169.218C194.825 171.659 190.682 172.889 185.646 172.889C179.298 172.889 174.261 170.935 170.551 167.026C166.825 163.119 164.971 157.633 164.971 150.571C164.971 143.255 166.853 137.588 170.607 133.558C174.374 129.524 179.242 127.499 185.242 127.499C191.046 127.499 195.786 129.48 199.457 133.43C203.14 137.379 204.982 142.948 204.982 150.108C204.982 150.555 204.966 151.214 204.938 152.077H172.573C172.839 156.85 174.194 160.508 176.618 163.035C179.047 165.576 182.059 166.845 185.686 166.845C188.378 166.845 190.682 166.135 192.595 164.709C194.504 163.3 196.01 161.039 197.126 157.927ZM137.369 171.909L120.849 128.489H128.622L137.94 154.493C138.943 157.297 139.865 160.217 140.715 163.243C141.372 160.954 142.279 158.204 143.451 154.98L153.106 128.489H160.666L144.232 171.909H137.369ZM106.487 128.489H113.852V171.914H106.487V128.489ZM106.487 111.963H113.852V120.438H106.487V111.963ZM59.649 171.909V128.489H66.2589V134.657C69.4537 129.883 74.059 127.499 80.0714 127.499C82.6945 127.499 85.0916 127.974 87.2845 128.909C89.4892 129.86 91.12 131.086 92.2064 132.619C93.3115 134.141 94.0631 135.958 94.5101 138.049C94.7736 139.417 94.9152 141.806 94.9152 145.212V171.909H87.548V145.491C87.548 142.501 87.2691 140.256 86.6974 138.761C86.1256 137.283 85.1077 136.097 83.6574 135.216C82.1918 134.325 80.4905 133.877 78.5207 133.877C75.3845 133.877 72.6931 134.88 70.4006 136.864C68.1282 138.86 66.998 142.628 66.998 148.195V171.909H59.649ZM39.1875 111.963H47.1285V146.605C47.1285 152.62 46.4459 157.409 45.0751 160.954C43.7099 164.501 41.2528 167.373 37.6933 169.593C34.1387 171.826 29.4783 172.931 23.7023 172.931C18.0936 172.931 13.4925 171.965 9.93371 170.025C6.3624 168.1 3.81046 165.293 2.28907 161.625C0.755118 157.951 0 152.956 0 146.605V111.963H7.92424V146.566C7.92424 151.769 8.41161 155.61 9.37451 158.064C10.3374 160.536 12.0115 162.434 14.3543 163.775C16.7124 165.113 19.6032 165.784 23.0064 165.784C28.8382 165.784 32.9924 164.458 35.4767 161.805C37.9492 159.166 39.1875 154.086 39.1875 146.566V111.963ZM312.672 36.1005H316.152C317.817 36.1005 318.953 35.855 319.559 35.362C320.164 34.8684 320.472 34.2102 320.472 33.4049C320.472 32.8806 320.319 32.4113 320.03 31.9978C319.736 31.583 319.335 31.2748 318.82 31.074C318.295 30.8711 317.341 30.7686 315.935 30.7686H312.672V36.1005ZM309.801 46.0955H312.672V38.5659H314.36C315.367 38.5596 316.13 38.7612 316.652 39.1628C317.415 39.7157 318.422 41.0963 319.664 43.301L321.248 46.0955H324.726L322.561 42.6211C321.525 40.9694 320.648 39.7994 319.931 39.1035C319.559 38.7367 319.049 38.423 318.422 38.1629C319.962 38.0451 321.195 37.504 322.12 36.5411C323.055 35.5852 323.517 34.448 323.517 33.1567C323.517 32.2405 323.241 31.371 322.689 30.5574C322.126 29.7381 321.387 29.1691 320.446 28.84C319.512 28.5109 318.006 28.3463 315.913 28.3463H309.801V46.0955ZM317.055 23.1916C314.733 23.1916 312.47 23.7912 310.273 24.9779C308.078 26.1674 306.361 27.868 305.118 30.0797C303.88 32.2907 303.259 34.5916 303.259 36.9818C303.259 39.3643 303.875 41.6429 305.091 43.8232C306.308 46.0056 308.01 47.7083 310.199 48.925C312.389 50.1424 314.674 50.7566 317.055 50.7566C319.432 50.7566 321.716 50.1424 323.905 48.925C326.094 47.7083 327.796 46.0056 329.008 43.8232C330.218 41.6429 330.821 39.3643 330.821 36.9818C330.821 34.5916 330.203 32.2907 328.97 30.0797C327.737 27.868 326.021 26.1674 323.815 24.9779C321.611 23.7912 319.356 23.1916 317.055 23.1916ZM317.055 20.4604C319.826 20.4604 322.53 21.1702 325.176 22.5961C327.811 24.015 329.874 26.0552 331.345 28.697C332.818 31.3494 333.557 34.1133 333.557 36.9818C333.557 39.8294 332.83 42.5688 331.374 45.1891C329.927 47.8191 327.896 49.86 325.272 51.3068C322.651 52.7661 319.909 53.4899 317.055 53.4899C314.195 53.4899 311.454 52.7661 308.833 51.3068C306.21 49.86 304.172 47.8191 302.716 45.1891C301.256 42.5688 300.527 39.8294 300.527 36.9818C300.527 34.1133 301.265 31.3494 302.744 28.697C304.231 26.0552 306.293 24.015 308.93 22.5961C311.571 21.1702 314.277 20.4604 317.055 20.4604ZM274.436 28.3262H292.273V92.5044H274.436V28.3262ZM268.163 92.5044H251.506V85.0055C249.025 88.0985 246.531 90.2935 244.02 91.6071C241.495 92.9242 238.405 93.5782 234.728 93.5782C229.829 93.5782 226.003 92.1161 223.211 89.1723C220.432 86.2438 219.044 81.7166 219.044 75.6094V45.9854H236.971V71.6183C236.971 74.5321 237.508 76.6085 238.582 77.851C239.659 79.0747 241.169 79.6869 243.11 79.6869C245.216 79.6869 246.952 78.8663 248.308 77.2354C249.653 75.5934 250.326 72.6503 250.326 68.4082V45.9854H268.163V92.5044ZM181.848 45.9847H198.547V53.5735C200.162 50.2728 201.821 48.0004 203.524 46.7607C205.242 45.5224 207.347 44.9102 209.856 44.9102C212.502 44.9102 215.384 45.7301 218.507 47.3722L212.98 60.0259C210.875 59.1446 209.201 58.713 207.976 58.713C205.646 58.713 203.823 59.6814 202.537 61.61C200.699 64.3307 199.774 69.4227 199.774 76.8784V92.5044H181.848V45.9847ZM158.813 70.3647C156.362 71.2467 153.807 72.0228 151.134 72.7096C147.519 73.6815 145.218 74.6382 144.262 75.5795C143.262 76.5507 142.768 77.6559 142.768 78.8949C142.768 80.3131 143.262 81.4782 144.234 82.3755C145.218 83.2708 146.653 83.7205 148.55 83.7205C150.537 83.7205 152.388 83.2269 154.108 82.2542C155.81 81.2864 157.021 80.106 157.738 78.6996C158.456 77.2961 158.813 75.4734 158.813 73.2311V70.3647ZM143.395 61.0432L126.367 59.2519C127.009 56.2607 127.935 53.9166 129.145 52.2153C130.354 50.4945 132.086 49.0163 134.372 47.7627C136.003 46.8493 138.24 46.1471 141.094 45.657C143.948 45.1633 147.042 44.9088 150.372 44.9088C155.705 44.9088 159.978 45.2065 163.219 45.8055C166.445 46.4023 169.15 47.6567 171.302 49.5532C172.827 50.871 174.02 52.7361 174.889 55.1396C175.768 57.5465 176.202 59.8474 176.202 62.043V82.5993C176.202 84.795 176.335 86.5123 176.618 87.7541C176.888 88.9938 177.504 90.5773 178.429 92.5052H161.742C161.07 91.3101 160.636 90.4127 160.427 89.7845C160.233 89.1584 160.024 88.185 159.813 86.8567C157.484 89.0991 155.167 90.6951 152.852 91.6545C149.699 92.9375 146.041 93.5796 141.871 93.5796C136.328 93.5796 132.118 92.2953 129.248 89.7099C126.367 87.1384 124.932 83.9597 124.932 80.1932C124.932 76.6532 125.962 73.7401 128.041 71.4559C130.114 69.1696 133.94 67.4642 139.511 66.3618C146.189 65.0182 150.522 64.0769 152.509 63.524C154.497 62.9843 156.602 62.2822 158.813 61.4008C158.813 59.2052 158.366 57.6803 157.453 56.8018C156.555 55.9191 154.975 55.484 152.702 55.484C149.789 55.484 147.61 55.9477 146.144 56.8883C145.01 57.6364 144.097 59.0121 143.395 61.0432ZM70.1663 28.3262H103.155C110.339 28.3262 115.718 30.0295 119.301 33.4488C122.872 36.8709 124.663 41.7433 124.663 48.0625C124.663 54.5462 122.708 59.6236 118.806 63.2681C114.91 66.9308 108.948 68.7519 100.942 68.7519H90.0651V92.5044H70.1663V28.3262Z" fill="white"/>
<path fill-rule="evenodd" clip-rule="evenodd" d="M668.21 55.3667C692.275 55.3667 712.338 72.4946 716.878 95.2236H705.609V110.387H717.551C714.865 135.263 693.801 154.631 668.21 154.631C640.799 154.631 618.578 132.41 618.578 104.999C618.578 77.588 640.799 55.3667 668.21 55.3667ZM683.309 132.16H702.584L679.348 71.6928H660.074L636.838 132.16H656.112L659.194 124.063H680.228L683.309 132.16ZM664.034 111.476L669.754 96.7777L675.387 111.476H664.034Z" fill="white"/>
<path d="M750.464 97.5698H734.798V81.5505H723.708V97.5698H707.953V108.043H723.708V124.063H734.798V108.043H750.464V97.5698Z" fill="white"/>
<path d="M795.081 97.5696H779.414V81.5503H768.325V97.5696H752.57V108.043H768.325V124.062H779.414V108.043H795.081V97.5696Z" fill="white"/>
<path d="M405.238 103.741H418.666V78.2703L437.216 103.741H450.643V56.1905H437.216V81.6617L418.666 56.1905H405.238V103.741ZM491.411 103.741H506.568L488.296 56.1905H473.138L454.865 103.741H470.023L472.445 97.3735H488.988L491.411 103.741ZM476.252 87.4754L480.752 75.9164L485.181 87.4754H476.252ZM543.252 103.741H558.409L540.137 56.1905H524.979L506.707 103.741H521.864L524.287 97.3735H540.83L543.252 103.741ZM528.094 87.4754L532.593 75.9164L537.023 87.4754H528.094ZM586.718 104.571C594.332 104.571 601.253 101.319 606.029 96.1275L596.2 87.5444C593.916 90.452 590.525 92.3896 586.718 92.3896C580.212 92.3896 574.675 86.714 574.675 79.9311C574.675 73.2173 580.212 67.5418 586.718 67.5418C590.456 67.5418 593.916 69.4801 596.131 72.387L606.029 63.7347C601.253 58.6134 594.332 55.3601 586.718 55.3601C572.667 55.3601 560.832 66.5732 560.832 79.9311C560.832 93.2897 572.667 104.571 586.718 104.571Z" fill="white"/>
<path d="M425.364 137.111H436.89V146.693C433.906 148.97 429.577 150.431 425.832 150.431C417.173 150.431 409.86 142.836 409.86 133.84C409.86 124.901 417.173 117.306 425.832 117.306C430.22 117.306 435.428 119.292 438.353 122.389L441.454 119.234C437.709 115.437 431.391 113.099 425.832 113.099C414.717 113.099 405.238 122.564 405.238 133.84C405.238 145.115 414.717 154.637 425.832 154.637C431.391 154.637 437.709 152.242 441.454 148.503V132.787H425.364V137.111ZM481.53 126.654C481.53 119.117 475.036 113.801 466.728 113.801H450.405V153.936H454.968V139.507H465.616L475.796 153.936H481.003L470.589 139.097C476.966 137.754 481.53 132.964 481.53 126.654ZM454.968 118.124H465.909C472.462 118.124 476.908 121.279 476.908 126.654C476.908 132.029 472.462 135.183 465.909 135.183H454.968V118.124ZM521.138 153.936H526.111L508.384 113.801H503.41L485.683 153.936H490.656L494.693 144.823H517.101L521.138 153.936ZM496.565 140.5L505.927 119.409L515.229 140.5H496.565ZM533.483 153.936H547.057C559.811 153.936 568.821 145.583 568.821 133.84C568.821 122.097 559.811 113.801 547.057 113.801H533.483V153.936ZM538.047 149.788V117.949H547.057C557.119 117.949 564.199 124.551 564.199 133.84C564.199 143.187 557.119 149.788 547.057 149.788H538.047ZM606.03 118.124V113.801H577.187V153.936H606.03V149.613H581.809V135.65H603.632V131.327H581.809V118.124H606.03Z" fill="white"/>
<path d="M383.394 16.9778V193.022H382V16.9778H383.394Z" fill="white"/>
<line x1="861.081" y1="8.74228e-08" x2="861.081" y2="210" stroke="white" stroke-width="4"/>
<path d="M936.846 51.654V65.3229H954.155V72.1893H936.846V91H928.223V44.8195H957.349V51.654H936.846ZM976.161 77.0117C973.883 77.1182 971.967 77.3204 970.413 77.6185C968.859 77.8953 967.613 78.2573 966.676 78.7044C965.739 79.1515 965.069 79.6731 964.664 80.2693C964.26 80.8654 964.057 81.5148 964.057 82.2174C964.057 83.6013 964.462 84.5914 965.271 85.1875C966.101 85.7837 967.177 86.0817 968.497 86.0817C970.115 86.0817 971.509 85.7943 972.68 85.2195C973.873 84.6233 975.033 83.7291 976.161 82.5368V77.0117ZM958.085 62.7999C961.854 59.3507 966.389 57.6261 971.69 57.6261C973.606 57.6261 975.32 57.9455 976.832 58.5842C978.344 59.2017 979.621 60.0746 980.664 61.203C981.708 62.3102 982.495 63.6409 983.028 65.1951C983.581 66.7494 983.858 68.4527 983.858 70.305V91H980.281C979.536 91 978.961 90.8935 978.557 90.6806C978.152 90.4464 977.833 89.9887 977.599 89.3074L976.896 86.944C976.066 87.6892 975.256 88.3493 974.469 88.9241C973.681 89.4777 972.861 89.9461 972.01 90.3293C971.158 90.7126 970.242 91 969.263 91.1916C968.305 91.4045 967.24 91.511 966.069 91.511C964.685 91.511 963.408 91.33 962.237 90.9681C961.066 90.5848 960.055 90.0206 959.203 89.2754C958.351 88.5302 957.691 87.6041 957.223 86.4969C956.754 85.3898 956.52 84.1017 956.52 82.6326C956.52 81.8022 956.659 80.9825 956.935 80.1735C957.212 79.3431 957.659 78.5553 958.277 77.8101C958.916 77.0649 959.735 76.3623 960.736 75.7023C961.737 75.0423 962.961 74.4674 964.409 73.9777C965.878 73.488 967.581 73.0941 969.519 72.7961C971.456 72.4767 973.67 72.2851 976.161 72.2212V70.305C976.161 68.112 975.693 66.4939 974.756 65.4506C973.819 64.3861 972.467 63.8538 970.7 63.8538C969.423 63.8538 968.358 64.0028 967.507 64.3009C966.676 64.599 965.942 64.9396 965.303 65.3229C964.664 65.6848 964.079 66.0148 963.546 66.3129C963.035 66.611 962.461 66.76 961.822 66.76C961.268 66.76 960.8 66.6216 960.417 66.3449C960.033 66.0468 959.725 65.7061 959.49 65.3229L958.085 62.7999ZM1014.76 65.1632C1014.53 65.4613 1014.29 65.6955 1014.06 65.8658C1013.85 66.0361 1013.53 66.1213 1013.1 66.1213C1012.7 66.1213 1012.3 66.0042 1011.92 65.77C1011.54 65.5145 1011.08 65.2377 1010.55 64.9396C1010.01 64.6203 1009.37 64.3435 1008.63 64.1093C1007.91 63.8538 1007 63.726 1005.91 63.726C1004.53 63.726 1003.32 63.9815 1002.27 64.4925C1001.23 64.9822 1000.36 65.6955 999.655 66.6323C998.973 67.5691 998.463 68.7082 998.122 70.0495C997.781 71.3696 997.611 72.8706 997.611 74.5526C997.611 76.2985 997.792 77.8527 998.154 79.2154C998.537 80.578 999.08 81.7277 999.783 82.6645C1000.49 83.58 1001.34 84.2826 1002.34 84.7723C1003.34 85.2407 1004.47 85.4749 1005.72 85.4749C1006.98 85.4749 1007.99 85.3259 1008.76 85.0278C1009.54 84.7085 1010.2 84.3678 1010.74 84.0059C1011.27 83.6226 1011.73 83.282 1012.11 82.9839C1012.51 82.6645 1012.96 82.5048 1013.45 82.5048C1014.09 82.5048 1014.57 82.7497 1014.89 83.2394L1017.16 86.1137C1016.28 87.1357 1015.34 87.9979 1014.31 88.7006C1013.29 89.3819 1012.23 89.9354 1011.12 90.3613C1010.03 90.7658 1008.91 91.0532 1007.73 91.2236C1006.59 91.3939 1005.44 91.4791 1004.29 91.4791C1002.26 91.4791 1000.36 91.1065 998.569 90.3613C996.781 89.5948 995.216 88.4876 993.874 87.0398C992.533 85.5921 991.468 83.8249 990.681 81.7384C989.914 79.6305 989.531 77.2353 989.531 74.5526C989.531 72.1467 989.872 69.9218 990.553 67.8778C991.255 65.8126 992.277 64.0348 993.619 62.5444C994.96 61.0327 996.621 59.8511 998.601 58.9994C1000.58 58.1478 1002.86 57.7219 1005.44 57.7219C1007.88 57.7219 1010.02 58.1158 1011.85 58.9036C1013.71 59.6914 1015.37 60.8198 1016.84 62.2889L1014.76 65.1632ZM1050.33 58.2329V91H1045.51C1044.47 91 1043.81 90.5209 1043.53 89.5628L1042.99 86.944C1041.65 88.3067 1040.17 89.4138 1038.55 90.2655C1036.93 91.0958 1035.03 91.511 1032.83 91.511C1031.04 91.511 1029.46 91.2129 1028.07 90.6168C1026.71 89.9993 1025.56 89.137 1024.62 88.0299C1023.69 86.9227 1022.97 85.6133 1022.48 84.1017C1022.02 82.5687 1021.78 80.8867 1021.78 79.0557V58.2329H1029.67V79.0557C1029.67 81.057 1030.13 82.6113 1031.04 83.7184C1031.98 84.8043 1033.37 85.3472 1035.23 85.3472C1036.59 85.3472 1037.87 85.0491 1039.06 84.453C1040.25 83.8355 1041.38 82.9945 1042.45 81.93V58.2329H1050.33ZM1066.14 43.542V91H1058.25V43.542H1066.14ZM1084.92 91.511C1082.07 91.511 1079.87 90.7126 1078.34 89.1157C1076.83 87.4976 1076.07 85.2727 1076.07 82.441V64.1412H1072.72C1072.3 64.1412 1071.93 64.0028 1071.64 63.726C1071.34 63.4493 1071.19 63.0341 1071.19 62.4805V59.3507L1076.46 58.4884L1078.12 49.5461C1078.22 49.1203 1078.43 48.7903 1078.73 48.5561C1079.02 48.3219 1079.41 48.2048 1079.87 48.2048H1083.96V58.5204H1092.71V64.1412H1083.96V81.898C1083.96 82.92 1084.21 83.7184 1084.7 84.2933C1085.21 84.8682 1085.9 85.1556 1086.77 85.1556C1087.26 85.1556 1087.67 85.1024 1087.99 84.9959C1088.33 84.8682 1088.61 84.7404 1088.85 84.6127C1089.1 84.4849 1089.33 84.3678 1089.52 84.2614C1089.71 84.1336 1089.9 84.0697 1090.09 84.0697C1090.33 84.0697 1090.52 84.1336 1090.67 84.2614C1090.82 84.3678 1090.98 84.5381 1091.15 84.7723L1093.51 88.6047C1092.36 89.5628 1091.04 90.2867 1089.55 90.7764C1088.06 91.2661 1086.52 91.511 1084.92 91.511ZM1127.53 58.2329L1109.68 100.006C1109.44 100.56 1109.13 100.975 1108.75 101.252C1108.39 101.55 1107.82 101.699 1107.06 101.699H1101.18L1107.31 88.5409L1094.06 58.2329H1100.99C1101.61 58.2329 1102.09 58.382 1102.43 58.68C1102.79 58.9781 1103.05 59.3188 1103.23 59.702L1110.19 76.6924C1110.42 77.2672 1110.61 77.8421 1110.76 78.4169C1110.93 78.9918 1111.09 79.5773 1111.24 80.1735C1111.43 79.5773 1111.62 78.9918 1111.82 78.4169C1112.01 77.8208 1112.22 77.2353 1112.45 76.6604L1119.03 59.702C1119.2 59.2762 1119.48 58.9249 1119.86 58.6481C1120.27 58.3713 1120.72 58.2329 1121.21 58.2329H1127.53ZM1159.86 57.7219C1162.28 57.7219 1164.49 58.1158 1166.47 58.9036C1168.47 59.6914 1170.17 60.8092 1171.58 62.257C1173 63.7048 1174.1 65.4719 1174.87 67.5585C1175.63 69.645 1176.02 71.9764 1176.02 74.5526C1176.02 77.1501 1175.63 79.4921 1174.87 81.5787C1174.1 83.6652 1173 85.443 1171.58 86.9121C1170.17 88.3812 1168.47 89.5096 1166.47 90.2974C1164.49 91.0852 1162.28 91.4791 1159.86 91.4791C1157.41 91.4791 1155.18 91.0852 1153.18 90.2974C1151.18 89.5096 1149.47 88.3812 1148.04 86.9121C1146.63 85.443 1145.54 83.6652 1144.75 81.5787C1143.98 79.4921 1143.6 77.1501 1143.6 74.5526C1143.6 71.9764 1143.98 69.645 1144.75 67.5585C1145.54 65.4719 1146.63 63.7048 1148.04 62.257C1149.47 60.8092 1151.18 59.6914 1153.18 58.9036C1155.18 58.1158 1157.41 57.7219 1159.86 57.7219ZM1159.86 85.4111C1162.58 85.4111 1164.59 84.4956 1165.89 82.6645C1167.21 80.8335 1167.87 78.1508 1167.87 74.6165C1167.87 71.0821 1167.21 68.3888 1165.89 66.5365C1164.59 64.6841 1162.58 63.758 1159.86 63.758C1157.09 63.758 1155.03 64.6948 1153.69 66.5684C1152.37 68.4207 1151.71 71.1034 1151.71 74.6165C1151.71 78.1295 1152.37 80.8122 1153.69 82.6645C1155.03 84.4956 1157.09 85.4111 1159.86 85.4111ZM1183.52 91V64.1732L1180.68 63.726C1180.06 63.5983 1179.56 63.3854 1179.18 63.0873C1178.82 62.7679 1178.64 62.3208 1178.64 61.746V58.5204H1183.52V56.0932C1183.52 54.2196 1183.8 52.5376 1184.35 51.0472C1184.93 49.5568 1185.74 48.29 1186.78 47.2467C1187.85 46.2034 1189.13 45.405 1190.64 44.8515C1192.16 44.2979 1193.86 44.0211 1195.75 44.0211C1197.27 44.0211 1198.67 44.2234 1199.97 44.6279L1199.81 48.588C1199.79 48.8861 1199.7 49.131 1199.56 49.3226C1199.41 49.4929 1199.2 49.6313 1198.95 49.7378C1198.71 49.8229 1198.44 49.8868 1198.12 49.9294C1197.8 49.9507 1197.46 49.9613 1197.1 49.9613C1196.16 49.9613 1195.32 50.0678 1194.57 50.2807C1193.85 50.4723 1193.23 50.8236 1192.72 51.3346C1192.21 51.8243 1191.82 52.4843 1191.54 53.3147C1191.28 54.1237 1191.16 55.1351 1191.16 56.3487V58.5204H1199.68V64.1412H1191.41V91H1183.52ZM959.936 157.11C960.404 157.11 960.82 157.291 961.182 157.653L964.567 161.325C962.693 163.646 960.383 165.424 957.637 166.659C954.911 167.894 951.632 168.511 947.8 168.511C944.372 168.511 941.285 167.925 938.538 166.754C935.813 165.583 933.482 163.955 931.544 161.868C929.607 159.782 928.116 157.291 927.073 154.395C926.051 151.499 925.54 148.338 925.54 144.91C925.54 141.439 926.094 138.267 927.201 135.393C928.308 132.497 929.862 130.006 931.864 127.919C933.886 125.833 936.292 124.215 939.081 123.065C941.87 121.894 944.958 121.309 948.343 121.309C951.707 121.309 954.688 121.862 957.285 122.969C959.904 124.076 962.129 125.524 963.96 127.313L961.086 131.305C960.915 131.56 960.692 131.784 960.415 131.975C960.16 132.167 959.798 132.263 959.329 132.263C959.01 132.263 958.68 132.178 958.339 132.007C957.999 131.816 957.626 131.592 957.221 131.337C956.817 131.06 956.348 130.762 955.816 130.442C955.284 130.123 954.666 129.836 953.964 129.58C953.261 129.303 952.442 129.08 951.505 128.909C950.589 128.718 949.525 128.622 948.311 128.622C946.246 128.622 944.351 128.995 942.626 129.74C940.923 130.464 939.454 131.528 938.219 132.933C936.984 134.317 936.026 136.021 935.345 138.043C934.663 140.045 934.323 142.334 934.323 144.91C934.323 147.507 934.685 149.817 935.409 151.84C936.154 153.863 937.154 155.566 938.411 156.95C939.667 158.334 941.147 159.398 942.85 160.144C944.553 160.867 946.384 161.229 948.343 161.229C949.514 161.229 950.568 161.166 951.505 161.038C952.463 160.91 953.336 160.708 954.124 160.431C954.933 160.154 955.688 159.803 956.391 159.377C957.115 158.93 957.828 158.387 958.531 157.748C958.744 157.557 958.967 157.408 959.201 157.301C959.436 157.173 959.681 157.11 959.936 157.11ZM983.019 134.722C985.446 134.722 987.65 135.116 989.63 135.904C991.632 136.691 993.335 137.809 994.74 139.257C996.167 140.705 997.263 142.472 998.03 144.558C998.796 146.645 999.179 148.976 999.179 151.553C999.179 154.15 998.796 156.492 998.03 158.579C997.263 160.665 996.167 162.443 994.74 163.912C993.335 165.381 991.632 166.51 989.63 167.297C987.65 168.085 985.446 168.479 983.019 168.479C980.571 168.479 978.346 168.085 976.345 167.297C974.343 166.51 972.629 165.381 971.203 163.912C969.797 162.443 968.701 160.665 967.913 158.579C967.147 156.492 966.763 154.15 966.763 151.553C966.763 148.976 967.147 146.645 967.913 144.558C968.701 142.472 969.797 140.705 971.203 139.257C972.629 137.809 974.343 136.691 976.345 135.904C978.346 135.116 980.571 134.722 983.019 134.722ZM983.019 162.411C985.745 162.411 987.757 161.496 989.055 159.665C990.375 157.833 991.035 155.151 991.035 151.616C991.035 148.082 990.375 145.389 989.055 143.536C987.757 141.684 985.745 140.758 983.019 140.758C980.251 140.758 978.197 141.695 976.855 143.568C975.535 145.421 974.875 148.103 974.875 151.616C974.875 155.13 975.535 157.812 976.855 159.665C978.197 161.496 980.251 162.411 983.019 162.411ZM1005.2 168V135.233H1010.02C1011.04 135.233 1011.71 135.712 1012.03 136.67L1012.54 139.097C1013.12 138.459 1013.71 137.873 1014.33 137.341C1014.97 136.808 1015.64 136.351 1016.34 135.967C1017.07 135.584 1017.83 135.286 1018.64 135.073C1019.47 134.839 1020.38 134.722 1021.36 134.722C1023.42 134.722 1025.12 135.286 1026.44 136.415C1027.78 137.522 1028.78 139.001 1029.44 140.854C1029.95 139.768 1030.59 138.842 1031.35 138.075C1032.12 137.288 1032.96 136.649 1033.88 136.159C1034.79 135.669 1035.76 135.307 1036.78 135.073C1037.83 134.839 1038.87 134.722 1039.91 134.722C1041.72 134.722 1043.33 134.999 1044.73 135.552C1046.14 136.106 1047.32 136.915 1048.28 137.979C1049.24 139.044 1049.96 140.343 1050.45 141.876C1050.96 143.409 1051.22 145.165 1051.22 147.145V168H1043.33V147.145C1043.33 145.059 1042.87 143.494 1041.96 142.451C1041.04 141.386 1039.7 140.854 1037.93 140.854C1037.12 140.854 1036.37 140.992 1035.66 141.269C1034.98 141.546 1034.38 141.95 1033.84 142.483C1033.33 142.994 1032.93 143.643 1032.63 144.431C1032.33 145.218 1032.18 146.123 1032.18 147.145V168H1024.26V147.145C1024.26 144.952 1023.82 143.356 1022.92 142.355C1022.05 141.354 1020.76 140.854 1019.06 140.854C1017.91 140.854 1016.83 141.141 1015.83 141.716C1014.85 142.27 1013.94 143.036 1013.09 144.016V168H1005.2ZM1058.72 168V135.233H1063.54C1064.56 135.233 1065.23 135.712 1065.55 136.67L1066.06 139.097C1066.64 138.459 1067.23 137.873 1067.85 137.341C1068.49 136.808 1069.16 136.351 1069.86 135.967C1070.59 135.584 1071.35 135.286 1072.16 135.073C1072.99 134.839 1073.9 134.722 1074.88 134.722C1076.94 134.722 1078.63 135.286 1079.95 136.415C1081.3 137.522 1082.3 139.001 1082.96 140.854C1083.47 139.768 1084.11 138.842 1084.87 138.075C1085.64 137.288 1086.48 136.649 1087.4 136.159C1088.31 135.669 1089.28 135.307 1090.3 135.073C1091.34 134.839 1092.39 134.722 1093.43 134.722C1095.24 134.722 1096.85 134.999 1098.25 135.552C1099.66 136.106 1100.84 136.915 1101.8 137.979C1102.76 139.044 1103.48 140.343 1103.97 141.876C1104.48 143.409 1104.74 145.165 1104.74 147.145V168H1096.85V147.145C1096.85 145.059 1096.39 143.494 1095.48 142.451C1094.56 141.386 1093.22 140.854 1091.45 140.854C1090.64 140.854 1089.89 140.992 1089.18 141.269C1088.5 141.546 1087.9 141.95 1087.36 142.483C1086.85 142.994 1086.45 143.643 1086.15 144.431C1085.85 145.218 1085.7 146.123 1085.7 147.145V168H1077.78V147.145C1077.78 144.952 1077.34 143.356 1076.44 142.355C1075.57 141.354 1074.28 140.854 1072.58 140.854C1071.43 140.854 1070.35 141.141 1069.35 141.716C1068.37 142.27 1067.46 143.036 1066.6 144.016V168H1058.72ZM1133.35 147.848C1133.35 146.826 1133.2 145.868 1132.9 144.974C1132.62 144.058 1132.2 143.26 1131.62 142.578C1131.05 141.897 1130.31 141.365 1129.42 140.982C1128.54 140.577 1127.52 140.375 1126.35 140.375C1124.07 140.375 1122.27 141.024 1120.95 142.323C1119.66 143.622 1118.82 145.463 1118.46 147.848H1133.35ZM1118.3 152.607C1118.43 154.289 1118.73 155.747 1119.2 156.982C1119.67 158.195 1120.28 159.207 1121.05 160.016C1121.82 160.804 1122.72 161.4 1123.76 161.804C1124.83 162.188 1126 162.379 1127.28 162.379C1128.55 162.379 1129.65 162.23 1130.57 161.932C1131.5 161.634 1132.31 161.304 1132.99 160.942C1133.7 160.58 1134.3 160.25 1134.81 159.952C1135.35 159.654 1135.86 159.505 1136.35 159.505C1137.01 159.505 1137.5 159.75 1137.82 160.239L1140.08 163.114C1139.21 164.136 1138.23 164.998 1137.15 165.701C1136.06 166.382 1134.92 166.935 1133.73 167.361C1132.56 167.766 1131.35 168.053 1130.12 168.224C1128.91 168.394 1127.72 168.479 1126.57 168.479C1124.3 168.479 1122.18 168.106 1120.22 167.361C1118.26 166.595 1116.56 165.477 1115.11 164.008C1113.66 162.518 1112.52 160.686 1111.69 158.515C1110.86 156.322 1110.45 153.788 1110.45 150.914C1110.45 148.678 1110.81 146.581 1111.53 144.622C1112.26 142.642 1113.29 140.928 1114.63 139.481C1115.99 138.011 1117.64 136.851 1119.58 135.999C1121.54 135.148 1123.74 134.722 1126.19 134.722C1128.26 134.722 1130.16 135.052 1131.91 135.712C1133.65 136.372 1135.16 137.341 1136.41 138.618C1137.67 139.874 1138.65 141.429 1139.35 143.281C1140.07 145.112 1140.44 147.209 1140.44 149.573C1140.44 150.765 1140.31 151.574 1140.05 152C1139.8 152.404 1139.31 152.607 1138.58 152.607H1118.3ZM1153.8 140.918C1154.82 138.959 1156.03 137.426 1157.44 136.319C1158.84 135.19 1160.5 134.626 1162.42 134.626C1163.93 134.626 1165.14 134.956 1166.06 135.616L1165.55 141.524C1165.44 141.908 1165.28 142.184 1165.07 142.355C1164.88 142.504 1164.61 142.578 1164.27 142.578C1163.95 142.578 1163.47 142.525 1162.83 142.419C1162.22 142.312 1161.61 142.259 1161.01 142.259C1160.14 142.259 1159.36 142.387 1158.68 142.642C1158 142.898 1157.38 143.27 1156.83 143.76C1156.3 144.228 1155.82 144.803 1155.39 145.485C1154.99 146.166 1154.61 146.943 1154.24 147.816V168H1146.36V135.233H1150.99C1151.79 135.233 1152.36 135.382 1152.68 135.68C1153 135.957 1153.21 136.468 1153.32 137.213L1153.8 140.918ZM1192.72 142.163C1192.49 142.461 1192.25 142.695 1192.02 142.866C1191.81 143.036 1191.49 143.121 1191.06 143.121C1190.66 143.121 1190.26 143.004 1189.88 142.77C1189.5 142.515 1189.04 142.238 1188.51 141.94C1187.97 141.62 1187.33 141.343 1186.59 141.109C1185.86 140.854 1184.96 140.726 1183.87 140.726C1182.49 140.726 1181.28 140.982 1180.23 141.493C1179.19 141.982 1178.32 142.695 1177.61 143.632C1176.93 144.569 1176.42 145.708 1176.08 147.05C1175.74 148.37 1175.57 149.871 1175.57 151.553C1175.57 153.298 1175.75 154.853 1176.11 156.215C1176.5 157.578 1177.04 158.728 1177.74 159.665C1178.44 160.58 1179.3 161.283 1180.3 161.772C1181.3 162.241 1182.43 162.475 1183.68 162.475C1184.94 162.475 1185.95 162.326 1186.72 162.028C1187.5 161.708 1188.16 161.368 1188.7 161.006C1189.23 160.623 1189.69 160.282 1190.07 159.984C1190.47 159.665 1190.92 159.505 1191.41 159.505C1192.05 159.505 1192.53 159.75 1192.85 160.239L1195.12 163.114C1194.24 164.136 1193.3 164.998 1192.27 165.701C1191.25 166.382 1190.19 166.935 1189.08 167.361C1187.99 167.766 1186.87 168.053 1185.69 168.224C1184.54 168.394 1183.4 168.479 1182.25 168.479C1180.22 168.479 1178.32 168.106 1176.53 167.361C1174.74 166.595 1173.18 165.488 1171.83 164.04C1170.49 162.592 1169.43 160.825 1168.64 158.738C1167.87 156.631 1167.49 154.235 1167.49 151.553C1167.49 149.147 1167.83 146.922 1168.51 144.878C1169.22 142.813 1170.24 141.035 1171.58 139.544C1172.92 138.033 1174.58 136.851 1176.56 135.999C1178.54 135.148 1180.82 134.722 1183.4 134.722C1185.84 134.722 1187.98 135.116 1189.81 135.904C1191.67 136.691 1193.33 137.82 1194.8 139.289L1192.72 142.163ZM1220.61 147.848C1220.61 146.826 1220.46 145.868 1220.16 144.974C1219.89 144.058 1219.46 143.26 1218.89 142.578C1218.31 141.897 1217.58 141.365 1216.68 140.982C1215.81 140.577 1214.79 140.375 1213.62 140.375C1211.34 140.375 1209.54 141.024 1208.22 142.323C1206.92 143.622 1206.09 145.463 1205.73 147.848H1220.61ZM1205.57 152.607C1205.7 154.289 1205.99 155.747 1206.46 156.982C1206.93 158.195 1207.55 159.207 1208.31 160.016C1209.08 160.804 1209.99 161.4 1211.03 161.804C1212.09 162.188 1213.26 162.379 1214.54 162.379C1215.82 162.379 1216.92 162.23 1217.83 161.932C1218.77 161.634 1219.58 161.304 1220.26 160.942C1220.96 160.58 1221.57 160.25 1222.08 159.952C1222.61 159.654 1223.12 159.505 1223.61 159.505C1224.27 159.505 1224.76 159.75 1225.08 160.239L1227.35 163.114C1226.48 164.136 1225.5 164.998 1224.41 165.701C1223.32 166.382 1222.19 166.935 1220.99 167.361C1219.82 167.766 1218.62 168.053 1217.38 168.224C1216.17 168.394 1214.99 168.479 1213.84 168.479C1211.56 168.479 1209.44 168.106 1207.48 167.361C1205.53 166.595 1203.82 165.477 1202.37 164.008C1200.93 162.518 1199.79 160.686 1198.96 158.515C1198.13 156.322 1197.71 153.788 1197.71 150.914C1197.71 148.678 1198.07 146.581 1198.8 144.622C1199.52 142.642 1200.55 140.928 1201.9 139.481C1203.26 138.011 1204.91 136.851 1206.85 135.999C1208.8 135.148 1211.01 134.722 1213.46 134.722C1215.52 134.722 1217.43 135.052 1219.17 135.712C1220.92 136.372 1222.42 137.341 1223.68 138.618C1224.93 139.874 1225.91 141.429 1226.61 143.281C1227.34 145.112 1227.7 147.209 1227.7 149.573C1227.7 150.765 1227.57 151.574 1227.32 152C1227.06 152.404 1226.57 152.607 1225.85 152.607H1205.57Z" fill="white"/>
</svg>
